<?xml version="1.0" encoding="UTF-8"?>
<!DOCTYPE svg PUBLIC "-//W3C//DTD SVG 1.1//EN" "http://www.w3.org/Graphics/SVG/1.1/DTD/svg11.dtd">
<!-- Creator: CorelDRAW 2020 (64-Bit) -->
<svg xmlns="http://www.w3.org/2000/svg" xml:space="preserve" width="50px" height="50px" version="1.1" style="shape-rendering:geometricPrecision; text-rendering:geometricPrecision; image-rendering:optimizeQuality; fill-rule:evenodd; clip-rule:evenodd"
viewBox="0 0 220.31 285.98"
 xmlns:xlink="http://www.w3.org/1999/xlink"
 xmlns:xodm="http://www.corel.com/coreldraw/odm/2003">
 <defs>
  <style type="text/css">
   <![CDATA[
    .fil1 {fill:#336EDB}
    .fil2 {fill:url(#id0)}
    .fil3 {fill:url(#id1)}
    .fil0 {fill:url(#id2)}
   ]]>
  </style>
  <linearGradient id="id0" gradientUnits="userSpaceOnUse" x1="21.16" y1="89.95" x2="160.35" y2="89.95">
   <stop offset="0" style="stop-opacity:1; stop-color:#336EDB"/>
   <stop offset="0.34902" style="stop-opacity:1; stop-color:#3575ED"/>
   <stop offset="1" style="stop-opacity:1; stop-color:#377DFF"/>
  </linearGradient>
  <linearGradient id="id1" gradientUnits="userSpaceOnUse" xlink:href="#id0" x1="38.52" y1="109.38" x2="220.31" y2="109.38">
  </linearGradient>
  <linearGradient id="id2" gradientUnits="userSpaceOnUse" xlink:href="#id0" x1="-0" y1="72.14" x2="129.63" y2="72.14">
  </linearGradient>
 </defs>
 <g id="Layer_x0020_1">
  <metadata id="CorelCorpID_0Corel-Layer"/>
  <g id="_2109711426944">
   <path class="fil0" d="M19.03 109.87c-5.48,-18.71 -4.97,-34.3 4.53,-50.28 12.94,-21.75 36.41,-35.48 61.73,-36.53 13.13,-0.55 21.01,1.64 32.1,5.52 4.17,-2.32 9.81,-8.3 12.24,-11.29 -44.72,-24.44 -108.09,-1.31 -125.37,47.09 -8.06,22.58 -4.62,53.17 9.86,72.46l73.54 -71.58 5.51 5.93 12.56 -35.59 -35.36 11.91 5.91 7.02 -57.24 55.36z"/>
   <path class="fil1" d="M52.09 240.49l76.76 -0.06c9.38,0.01 12.96,-9.04 7.64,-14.26 -4.02,-3.95 -49.01,-2.15 -56.9,-2.15l-27.49 -0.02c-6.34,0 -10.31,1.01 -10.58,7.58 -0.3,7.16 3.81,8.93 10.58,8.93zm62.73 28.15l-49.71 0.18c5.6,13.86 25.74,23.59 39.67,12.02 4.25,-3.53 8.33,-6.87 10.04,-12.2zm-57.85 -6.49c5.74,1.68 49.16,1.46 59.32,0.99 14.94,-0.69 9.82,-13.87 6.04,-15.88 -3.12,-1.67 -62.23,-1.91 -65.55,0.53 -5.1,3.76 -2.47,10.54 0.18,14.36z"/>
   <path class="fil2" d="M21.16 146.65c0.61,4.52 4.67,10.64 8.02,13.42l112.34 -109.57 6.8 4.64 12.02 -35.3 -35.2 11.95 5.31 7.04 -109.29 107.82z"/>
   <path class="fil3" d="M179.1 50.42l21.58 -21.21 7.29 6.31 12.34 -35.51 -35.81 12.45 5.04 5.47c-44.76,45.12 -89.68,90.05 -134.71,134.9 -11.84,11.59 -16.4,13.08 -16.3,23.58 0.12,13.72 0.08,27.44 0.04,41.16 6.35,1.32 28.53,2.3 32.69,-1.36 3.5,-3.07 2.68,-9.12 -0.3,-11.56 -3.93,-3.23 -11.35,-1.91 -16.58,-2.03 -2.39,-31.73 -1.35,-25.69 17.27,-44.42 10.15,-10.21 79.76,-83 87.58,-86.28 7.87,33.14 -6.12,54.33 -22.79,82.34 -2.71,4.55 -10.1,13.7 -10.21,19.08l-0.06 29.05c-11.27,1.28 -23.24,-0.86 -15.86,14.39 8.6,2.63 21.73,1.74 31.49,1.32l-0.06 -16.45c0.23,-12.9 -2.17,-23.06 3.83,-32.52 19.32,-30.45 44.92,-74.65 25.51,-111l8.02 -7.72z"/>
  </g>
 </g>
</svg>
